<svg width="121" height="26" viewBox="0 0 121 26" fill="none" xmlns="http://www.w3.org/2000/svg">
<g clip-path="url(#clip0_776_9218)">
<path d="M15.3892 6.49182C12.1816 6.49182 9.88288 7.87226 8.58382 9.68976V0H0.875V22.4815L8.58382 22.716V16.3788C8.58382 13.9537 10.0005 12.5359 12.2832 12.5359C14.4857 12.5359 15.9024 13.9537 15.9024 16.3788V22.9346L23.6112 23.1637V15.4087C23.6112 9.92427 20.425 6.49182 15.3892 6.49182Z" fill="white"/>
<path d="M40.296 6.67969V17.9151C40.296 20.3402 38.8793 21.758 36.6393 21.758C34.3994 21.758 33.0041 20.3402 33.0041 17.9151V6.67969H25.306V18.8478C25.2796 20.356 25.5672 21.8533 26.1506 23.245L48.0689 23.9006V6.67969H40.296Z" fill="white"/>
<path d="M64.4915 6.49219C61.3855 6.49219 59.0654 7.87263 57.7663 9.69013V6.70538H50.0521V23.9583L57.7663 24.1928V16.3791C57.7663 13.954 59.183 12.5363 61.4603 12.5363C63.7377 12.5363 65.0795 13.954 65.0795 16.3791V24.422L72.7937 24.6511V15.4091C72.7937 9.92464 69.6075 6.49219 64.4915 6.49219Z" fill="white"/>
<path d="M89.2378 0V9.55118C88.019 7.6484 85.7363 6.4172 82.8227 6.4172C77.5517 6.4172 73.3818 10.4466 73.3818 17.125C73.3818 20.3229 74.3334 22.8972 75.8944 24.7361L88.9438 25.1305C89.0454 24.9919 89.147 24.848 89.2325 24.7041V25.1358L96.9841 25.3703V0H89.2378ZM85.2658 21.4955C83.0633 21.4955 81.251 19.9285 81.251 17.125C81.251 14.3214 83.0633 12.7971 85.2658 12.7971C87.4683 12.7971 89.2806 14.3268 89.2806 17.125C89.2806 19.9232 87.4309 21.4955 85.2658 21.4955Z" fill="white"/>
<path d="M120.87 17.1257C120.87 10.4847 115.877 6.41797 109.306 6.41797C102.736 6.41797 97.7379 10.4847 97.7379 17.1257C97.7379 20.7874 99.2348 23.6602 101.662 25.5097L116.267 25.952C119.073 24.1292 120.87 21.0965 120.87 17.1257ZM109.264 21.5336C107.259 21.5336 105.607 20.1531 105.607 17.1257C105.607 14.0984 107.339 12.7605 109.306 12.7605C111.274 12.7605 113.049 14.141 113.049 17.1257C113.049 20.1105 111.231 21.5336 109.264 21.5336Z" fill="white"/>
</g>
<defs>
<clipPath id="clip0_776_9218">
<rect width="120" height="25.9459" fill="white" transform="translate(0.875)"/>
</clipPath>
</defs>
</svg>
